<?xml version="1.0" encoding="UTF-8"?>
<svg xmlns="http://www.w3.org/2000/svg" xmlns:xlink="http://www.w3.org/1999/xlink" width="854" height="480" viewBox="0 0 854 480">
<defs>
<g>
<g id="glyph-0-0">
<path d="M 3.292969 -1.972656 C 3.417969 -1.890625 3.519531 -1.78125 3.601562 -1.644531 C 3.683594 -1.507812 3.722656 -1.34375 3.722656 -1.152344 C 3.722656 -0.953125 3.679688 -0.785156 3.59375 -0.636719 C 3.511719 -0.492188 3.398438 -0.375 3.261719 -0.28125 C 3.128906 -0.1875 2.976562 -0.121094 2.808594 -0.0703125 C 2.640625 -0.0234375 2.46875 0 2.289062 0 L 0.285156 0 L 0.285156 -0.210938 C 0.332031 -0.214844 0.402344 -0.222656 0.492188 -0.238281 C 0.582031 -0.25 0.648438 -0.265625 0.6875 -0.285156 C 0.75 -0.3125 0.792969 -0.347656 0.820312 -0.394531 C 0.847656 -0.441406 0.859375 -0.503906 0.859375 -0.574219 L 0.859375 -3.621094 C 0.859375 -3.6875 0.847656 -3.746094 0.824219 -3.796875 C 0.800781 -3.851562 0.757812 -3.890625 0.6875 -3.921875 C 0.628906 -3.953125 0.5625 -3.976562 0.488281 -3.992188 C 0.414062 -4.007812 0.355469 -4.019531 0.304688 -4.023438 L 0.304688 -4.234375 L 2.257812 -4.234375 C 2.410156 -4.234375 2.554688 -4.21875 2.691406 -4.1875 C 2.832031 -4.160156 2.960938 -4.105469 3.089844 -4.03125 C 3.207031 -3.960938 3.300781 -3.867188 3.378906 -3.746094 C 3.453125 -3.628906 3.492188 -3.484375 3.492188 -3.3125 C 3.492188 -3.164062 3.464844 -3.03125 3.410156 -2.914062 C 3.355469 -2.796875 3.28125 -2.699219 3.183594 -2.613281 C 3.09375 -2.535156 2.988281 -2.46875 2.867188 -2.414062 C 2.75 -2.359375 2.621094 -2.316406 2.484375 -2.285156 L 2.484375 -2.257812 C 2.605469 -2.246094 2.742188 -2.214844 2.894531 -2.167969 C 3.042969 -2.121094 3.175781 -2.054688 3.292969 -1.972656 M 2.574219 -2.609375 C 2.644531 -2.695312 2.695312 -2.789062 2.726562 -2.890625 C 2.753906 -2.992188 2.769531 -3.113281 2.769531 -3.253906 C 2.769531 -3.488281 2.707031 -3.667969 2.578125 -3.800781 C 2.453125 -3.933594 2.25 -4 1.976562 -4 C 1.914062 -4 1.832031 -4 1.738281 -3.996094 C 1.640625 -3.992188 1.558594 -3.992188 1.496094 -3.988281 L 1.496094 -2.359375 L 1.871094 -2.359375 C 2.035156 -2.359375 2.175781 -2.382812 2.292969 -2.421875 C 2.40625 -2.464844 2.5 -2.527344 2.574219 -2.609375 M 2.988281 -1.257812 C 2.988281 -1.511719 2.902344 -1.714844 2.734375 -1.875 C 2.566406 -2.039062 2.328125 -2.117188 2.015625 -2.117188 C 1.886719 -2.117188 1.78125 -2.117188 1.691406 -2.113281 C 1.605469 -2.109375 1.539062 -2.109375 1.496094 -2.105469 L 1.496094 -0.613281 C 1.496094 -0.488281 1.546875 -0.394531 1.648438 -0.332031 C 1.75 -0.265625 1.890625 -0.234375 2.070312 -0.234375 C 2.367188 -0.234375 2.59375 -0.320312 2.75 -0.496094 C 2.90625 -0.667969 2.988281 -0.921875 2.988281 -1.257812 Z "/>
</g>
<g id="glyph-0-1">
<path d="M 3.085938 -1.5 C 3.085938 -1.292969 3.050781 -1.089844 2.988281 -0.890625 C 2.921875 -0.691406 2.828125 -0.519531 2.707031 -0.382812 C 2.570312 -0.222656 2.410156 -0.105469 2.226562 -0.0273438 C 2.046875 0.0507812 1.84375 0.0898438 1.617188 0.0898438 C 1.429688 0.0898438 1.253906 0.0546875 1.085938 -0.015625 C 0.914062 -0.0859375 0.765625 -0.191406 0.632812 -0.324219 C 0.503906 -0.457031 0.402344 -0.621094 0.324219 -0.8125 C 0.246094 -1.003906 0.207031 -1.21875 0.207031 -1.460938 C 0.207031 -1.917969 0.34375 -2.292969 0.609375 -2.585938 C 0.878906 -2.878906 1.230469 -3.027344 1.664062 -3.027344 C 2.074219 -3.027344 2.414062 -2.886719 2.683594 -2.609375 C 2.953125 -2.332031 3.085938 -1.960938 3.085938 -1.5 M 2.46875 -1.496094 C 2.46875 -1.644531 2.453125 -1.800781 2.421875 -1.96875 C 2.394531 -2.132812 2.347656 -2.273438 2.289062 -2.390625 C 2.222656 -2.511719 2.140625 -2.613281 2.035156 -2.6875 C 1.933594 -2.761719 1.808594 -2.796875 1.65625 -2.796875 C 1.503906 -2.796875 1.371094 -2.761719 1.265625 -2.683594 C 1.15625 -2.609375 1.066406 -2.507812 1 -2.375 C 0.9375 -2.253906 0.890625 -2.117188 0.867188 -1.960938 C 0.839844 -1.804688 0.828125 -1.65625 0.828125 -1.511719 C 0.828125 -1.320312 0.84375 -1.140625 0.871094 -0.980469 C 0.902344 -0.816406 0.953125 -0.671875 1.019531 -0.546875 C 1.089844 -0.417969 1.171875 -0.320312 1.277344 -0.246094 C 1.378906 -0.171875 1.507812 -0.136719 1.65625 -0.136719 C 1.90625 -0.136719 2.105469 -0.257812 2.25 -0.5 C 2.394531 -0.738281 2.46875 -1.070312 2.46875 -1.496094 Z "/>
</g>
<g id="glyph-0-2">
<path d="M 3.203125 -1.472656 C 3.203125 -1.03125 3.0625 -0.660156 2.785156 -0.359375 C 2.503906 -0.0625 2.183594 0.0898438 1.8125 0.0898438 C 1.652344 0.0898438 1.496094 0.0664062 1.339844 0.015625 C 1.183594 -0.0351562 1.035156 -0.101562 0.898438 -0.183594 L 0.675781 0.15625 L 0.492188 0.117188 C 0.503906 -0.03125 0.507812 -0.207031 0.511719 -0.414062 C 0.515625 -0.621094 0.519531 -0.820312 0.519531 -1.015625 L 0.519531 -3.929688 C 0.519531 -3.996094 0.503906 -4.066406 0.472656 -4.132812 C 0.441406 -4.199219 0.402344 -4.25 0.355469 -4.277344 C 0.316406 -4.304688 0.253906 -4.324219 0.164062 -4.335938 C 0.078125 -4.351562 0.0078125 -4.359375 -0.046875 -4.363281 L -0.046875 -4.554688 L 1.03125 -4.617188 L 1.074219 -4.574219 L 1.074219 -2.632812 L 1.09375 -2.628906 C 1.21875 -2.761719 1.351562 -2.859375 1.5 -2.925781 C 1.644531 -2.988281 1.789062 -3.023438 1.929688 -3.023438 C 2.292969 -3.023438 2.59375 -2.878906 2.835938 -2.59375 C 3.082031 -2.304688 3.203125 -1.933594 3.203125 -1.472656 M 2.578125 -1.453125 C 2.578125 -1.601562 2.5625 -1.75 2.53125 -1.902344 C 2.5 -2.058594 2.449219 -2.191406 2.382812 -2.304688 C 2.3125 -2.417969 2.226562 -2.511719 2.117188 -2.582031 C 2.007812 -2.65625 1.875 -2.691406 1.722656 -2.691406 C 1.582031 -2.691406 1.460938 -2.664062 1.355469 -2.609375 C 1.25 -2.554688 1.15625 -2.480469 1.074219 -2.386719 L 1.074219 -0.675781 C 1.085938 -0.625 1.109375 -0.570312 1.144531 -0.507812 C 1.179688 -0.445312 1.226562 -0.382812 1.285156 -0.324219 C 1.34375 -0.269531 1.414062 -0.222656 1.488281 -0.191406 C 1.566406 -0.15625 1.65625 -0.136719 1.765625 -0.136719 C 2.007812 -0.136719 2.203125 -0.253906 2.355469 -0.488281 C 2.503906 -0.722656 2.578125 -1.046875 2.578125 -1.453125 Z "/>
</g>
</g>
</defs>
<g fill="rgb(98.823529%, 38.431373%, 33.333333%)" fill-opacity="1">
<use xlink:href="#glyph-0-0" x="30" y="25.603516"/>
<use xlink:href="#glyph-0-1" x="34" y="25.603516"/>
<use xlink:href="#glyph-0-2" x="37" y="25.603516"/>
</g>
</svg>
